# xmcd
#
# Track frame offsets: 
# 150
# 16682
# 41552
# 60825
# 83245
# 102452
# 137435
# 157965
# 182362
# 203032
# 220022
# 236627
# 257432
# 274947
# 295407
# 312705
# 326885
#
# Disc length: 4590 seconds
# Submitted via: tkcNetwork 1.0
# Revision: 0
# Processed by: cddbd v1.5.2PL0 Copyright (c) Steve Scherf et al.
#
DISCID=ea11ec11
DTITLE=Counting Crows - Films About Ghosts (The Best Of)
DYEAR=2003
DGENRE=Rock
TTITLE0=Angels Of The Silences
TTITLE1=Round Here
TTITLE2=Rain King
TTITLE3=A Long December
TTITLE4=Hanginaround
TTITLE5=Mrs Potter's Lullaby
TTITLE6=Mr. Jones
TTITLE7=Recovering The Satellites
TTITLE8=American Girls
TTITLE9=Big Yellow Taxi
TTITLE10=Omaha
TTITLE11=Friend Of The Devil
TTITLE12=Einstein On The Beach
TTITLE13=Anna Begins
TTITLE14=Holiday In Spain
TTITLE15=She Don't Want Nobody Near
TTITLE16=Holiday In Spain (With Bløf)
EXTD=
EXTT0=
EXTT1=
EXTT2=
EXTT3=
EXTT4=
EXTT5=
EXTT6=
EXTT7=
EXTT8=
EXTT9=
EXTT10=
EXTT11=
EXTT12=
EXTT13=
EXTT14=
EXTT15=
EXTT16=
PLAYORDER=
